<svg fill="none" height="100%" width="100%" viewBox="0 0 512 512" xmlns:xlink="http://www.w3.org/1999/xlink" xmlns="http://www.w3.org/2000/svg"><defs><style>
@keyframes b{0% 88%,100%{transform:scaleY(0)}91%,96%{transform:scaleY(1)}}
</style><clipPath id="i0"><rect height="500" width="500" y="0" x="0" /></clipPath><clipPath id="i1"><rect height="260" width="220" y="0" x="0" /></clipPath><g id="i2"><g visibility="visible" id="i3"><animate repeatCount="indefinite" begin="0s" calcMode="discrete" dur="5s" values="visible" attributeName="visibility" /><g transform="translate(109.982,141) scale(2,2) translate(-54.991,-70.5)"><g id="i4" transform="matrix(1,0,0,1,0,0)"><g id="i5" transform="matrix(1,0,0,1,0,0)"><path fill="#000000" fill-opacity="0.102" d="M77,122C77,124.76,67.15,127,55,127C42.85,127,33,124.76,33,122C33,119.24,42.85,117,55,117C67.15,117,77,119.24,77,122C77,122,77,122,77,122Z" /></g><g id="i6" transform="matrix(1,0,0,1,0,0)" opacity="0.9"><g id="i7" transform="matrix(1,0,0,1,0,0)"><path fill="#e05900" d="M77,30C77,32.76,67.15,35,55,35C42.85,35,33,32.76,33,30C33,27.24,42.85,25,55,25C67.15,25,77,27.24,77,30C77,30,77,30,77,30Z" /></g></g><g id="i8" transform="matrix(1,0,0,1,0,0)"><path fill="#fa7317" d="M34,30C34,19.33,41,14,55,14C69,14,76,19.33,76,30C76,30,34,30,34,30Z" /></g><g id="i9" transform="matrix(1,0,0,1,0,0)" opacity="0.6"><g id="i10" transform="matrix(1,0,0,1,0,0)"><path stroke-linecap="round" stroke-width="2" stroke="#e05900" d="M38,26C49.33,22,60.67,22,72,26" /></g></g><g id="i11" transform="matrix(1,0,0,1,0,0)"><path fill="#fa7317" d="M22,65C19.33,51.67,23.67,42.67,35,38C41.67,34,48.33,32.33,55,33C61.67,32.33,68.33,34,75,38C86.33,42.67,90.67,51.67,88,65C90.67,78.33,88.67,89.33,82,98C74,107.33,65,112,55,112C45,112,36,107.33,28,98C21.33,89.33,19.33,78.33,22,65C22,65,22,65,22,65Z" /></g><g id="i12" transform="matrix(1,0,0,1,0,0)" opacity="0.25"><g id="i13" transform="matrix(1,0,0,1,0,0)"><path stroke-linecap="round" stroke-width="3" stroke="#e05900" d="M30,70C27.33,60,30,52,38,46C42.67,42,48.33,40.33,55,41" /></g></g><g id="i14" transform="matrix(1,0,0,1,0,0)"><path fill="#ffffff" d="M52,62C52,67.52,47.97,72,43,72C38.03,72,34,67.52,34,62C34,56.48,38.03,52,43,52C47.97,52,52,56.48,52,62C52,62,52,62,52,62Z" /></g><g id="i15" transform="matrix(1,0,0,1,0,0)"><path fill="#1c1a17" d="M49,63C49,66.04,46.76,68.5,44,68.5C41.24,68.5,39,66.04,39,63C39,59.96,41.24,57.5,44,57.5C46.76,57.5,49,59.96,49,63C49,63,49,63,49,63Z" /></g><g id="i16" transform="matrix(1,0,0,1,0,0)"><path fill="#ffffff" d="M48,60C48,61.1,47.1,62,46,62C44.9,62,44,61.1,44,60C44,58.9,44.9,58,46,58C47.1,58,48,58.9,48,60C48,60,48,60,48,60Z" /></g><g id="i17" transform="matrix(1,0,0,1,0,0)"><path fill="#ffffff" d="M76,62C76,67.52,71.97,72,67,72C62.03,72,58,67.52,58,62C58,56.48,62.03,52,67,52C71.97,52,76,56.48,76,62C76,62,76,62,76,62Z" /></g><g id="i18" transform="matrix(1,0,0,1,0,0)"><path fill="#1c1a17" d="M73,63C73,66.04,70.76,68.5,68,68.5C65.24,68.5,63,66.04,63,63C63,59.96,65.24,57.5,68,57.5C70.76,57.5,73,59.96,73,63C73,63,73,63,73,63Z" /></g><g id="i19" transform="matrix(1,0,0,1,0,0)"><path fill="#ffffff" d="M72,60C72,61.1,71.1,62,70,62C68.9,62,68,61.1,68,60C68,58.9,68.9,58,70,58C71.1,58,72,58.9,72,60C72,60,72,60,72,60Z" /></g><g id="i20" transform="matrix(1,0,0,1,0,0)"><g transform="translate(34,52)"><g><animateTransform attributeName="transform" type="scale" values="1 0;1 0;1 0;1 1;1 1;1 0;1 0" keyTimes="0;0.01;0.88;0.91;0.96;0.99;1" dur="4s" repeatCount="indefinite"/><rect x="0" y="0" width="18" height="20" rx="2" fill="#fa7317"/></g></g></g><g id="i21" transform="matrix(1,0,0,1,0,0)"><g transform="translate(58,52)"><g><animateTransform attributeName="transform" type="scale" values="1 0;1 0;1 0;1 1;1 1;1 0;1 0" keyTimes="0;0.01;0.88;0.91;0.96;0.99;1" dur="4s" repeatCount="indefinite"/><rect x="0" y="0" width="18" height="20" rx="2" fill="#fa7317"/></g></g></g><g id="i22" transform="matrix(1,0,0,1,0,0)"><path stroke-linecap="round" stroke-width="2.5" stroke="#1c1a17" d="M46,80C52,84.67,58,84.67,64,80" /></g><g id="i23" transform="matrix(1,0,0,1,0,0)" opacity="0.3"><g id="i24" transform="matrix(1,0,0,1,0,0)"><path fill="#ff8c42" d="M41,75C41,77.21,38.31,79,35,79C31.69,79,29,77.21,29,75C29,72.79,31.69,71,35,71C38.31,71,41,72.79,41,75C41,75,41,75,41,75Z" /></g></g><g id="i25" transform="matrix(1,0,0,1,0,0)" opacity="0.3"><g id="i26" transform="matrix(1,0,0,1,0,0)"><path fill="#ff8c42" d="M81,75C81,77.21,78.31,79,75,79C71.69,79,69,77.21,69,75C69,72.79,71.69,71,75,71C78.31,71,81,72.79,81,75C81,75,81,75,81,75Z" /></g></g></g></g></g></g><g id="i27"><g transform="matrix(1,0,0,1,140,120)" visibility="visible" id="i28"><animate repeatCount="indefinite" begin="0s" calcMode="discrete" dur="5s" values="visible" attributeName="visibility" /><g clip-path="url(#i1)"><g visibility="visible"><animate repeatCount="indefinite" begin="0s" calcMode="discrete" dur="5s" values="visible" attributeName="visibility" /><g transform="translate(109.982,141) scale(2,2) translate(-54.991,-70.5)"><g transform="matrix(1,0,0,1,0,0)"><g transform="matrix(1,0,0,1,0,0)"><path fill="#000000" fill-opacity="0.102" d="M77,122C77,124.76,67.15,127,55,127C42.85,127,33,124.76,33,122C33,119.24,42.85,117,55,117C67.15,117,77,119.24,77,122C77,122,77,122,77,122Z" /></g><g transform="matrix(1,0,0,1,0,0)" opacity="0.9"><g transform="matrix(1,0,0,1,0,0)"><path fill="#e05900" d="M77,30C77,32.76,67.15,35,55,35C42.85,35,33,32.76,33,30C33,27.24,42.85,25,55,25C67.15,25,77,27.24,77,30C77,30,77,30,77,30Z" /></g></g><g transform="matrix(1,0,0,1,0,0)"><path fill="#fa7317" d="M34,30C34,19.33,41,14,55,14C69,14,76,19.33,76,30C76,30,34,30,34,30Z" /></g><g transform="matrix(1,0,0,1,0,0)" opacity="0.6"><g transform="matrix(1,0,0,1,0,0)"><path stroke-linecap="round" stroke-width="2" stroke="#e05900" d="M38,26C49.33,22,60.67,22,72,26" /></g></g><g transform="matrix(1,0,0,1,0,0)"><path fill="#fa7317" d="M22,65C19.33,51.67,23.67,42.67,35,38C41.67,34,48.33,32.33,55,33C61.67,32.33,68.33,34,75,38C86.33,42.67,90.67,51.67,88,65C90.67,78.33,88.67,89.33,82,98C74,107.33,65,112,55,112C45,112,36,107.33,28,98C21.33,89.33,19.33,78.33,22,65C22,65,22,65,22,65Z" /></g><g transform="matrix(1,0,0,1,0,0)" opacity="0.25"><g transform="matrix(1,0,0,1,0,0)"><path stroke-linecap="round" stroke-width="3" stroke="#e05900" d="M30,70C27.33,60,30,52,38,46C42.67,42,48.33,40.33,55,41" /></g></g><g transform="matrix(1,0,0,1,0,0)"><path fill="#ffffff" d="M52,62C52,67.52,47.97,72,43,72C38.03,72,34,67.52,34,62C34,56.48,38.03,52,43,52C47.97,52,52,56.48,52,62C52,62,52,62,52,62Z" /></g><g transform="matrix(1,0,0,1,0,0)"><path fill="#1c1a17" d="M49,63C49,66.04,46.76,68.5,44,68.5C41.24,68.5,39,66.04,39,63C39,59.96,41.24,57.5,44,57.5C46.76,57.5,49,59.96,49,63C49,63,49,63,49,63Z" /></g><g transform="matrix(1,0,0,1,0,0)"><path fill="#ffffff" d="M48,60C48,61.1,47.1,62,46,62C44.9,62,44,61.1,44,60C44,58.9,44.9,58,46,58C47.1,58,48,58.9,48,60C48,60,48,60,48,60Z" /></g><g transform="matrix(1,0,0,1,0,0)"><path fill="#ffffff" d="M76,62C76,67.52,71.97,72,67,72C62.03,72,58,67.52,58,62C58,56.48,62.03,52,67,52C71.97,52,76,56.48,76,62C76,62,76,62,76,62Z" /></g><g transform="matrix(1,0,0,1,0,0)"><path fill="#1c1a17" d="M73,63C73,66.04,70.76,68.5,68,68.5C65.24,68.5,63,66.04,63,63C63,59.96,65.24,57.5,68,57.5C70.76,57.5,73,59.96,73,63C73,63,73,63,73,63Z" /></g><g transform="matrix(1,0,0,1,0,0)"><path fill="#ffffff" d="M72,60C72,61.1,71.1,62,70,62C68.9,62,68,61.1,68,60C68,58.9,68.9,58,70,58C71.1,58,72,58.9,72,60C72,60,72,60,72,60Z" /></g><g transform="matrix(1,0,0,1,0,0)"><g transform="translate(34,52)"><g><animateTransform attributeName="transform" type="scale" values="1 0;1 0;1 0;1 1;1 1;1 0;1 0" keyTimes="0;0.01;0.88;0.91;0.96;0.99;1" dur="4s" repeatCount="indefinite"/><rect x="0" y="0" width="18" height="20" rx="2" fill="#fa7317"/></g></g></g><g transform="matrix(1,0,0,1,0,0)"><g transform="translate(58,52)"><g><animateTransform attributeName="transform" type="scale" values="1 0;1 0;1 0;1 1;1 1;1 0;1 0" keyTimes="0;0.01;0.88;0.91;0.96;0.99;1" dur="4s" repeatCount="indefinite"/><rect x="0" y="0" width="18" height="20" rx="2" fill="#fa7317"/></g></g></g><g transform="matrix(1,0,0,1,0,0)"><path stroke-linecap="round" stroke-width="2.5" stroke="#1c1a17" d="M46,80C52,84.67,58,84.67,64,80" /></g><g transform="matrix(1,0,0,1,0,0)" opacity="0.3"><g transform="matrix(1,0,0,1,0,0)"><path fill="#ff8c42" d="M41,75C41,77.21,38.31,79,35,79C31.69,79,29,77.21,29,75C29,72.79,31.69,71,35,71C38.31,71,41,72.79,41,75C41,75,41,75,41,75Z" /></g></g><g transform="matrix(1,0,0,1,0,0)" opacity="0.3"><g transform="matrix(1,0,0,1,0,0)"><path fill="#ff8c42" d="M81,75C81,77.21,78.31,79,75,79C71.69,79,69,77.21,69,75C69,72.79,71.69,71,75,71C78.31,71,81,72.79,81,75C81,75,81,75,81,75Z" /></g></g></g></g></g></g></g><g visibility="visible" id="i29"><animate repeatCount="indefinite" begin="0s" calcMode="discrete" dur="5s" values="visible" attributeName="visibility" /><g transform="translate(250,321.5)"><animateTransform repeatCount="indefinite" type="translate" attributeName="transform" dur="5s" begin="0s" calcMode="spline" values="250 321.5; 250 321.5; 250 361; 250 321.5; 250 361; 250 321.5; 250 361; 250 321.5; 250 361; 250 321.5; 250 321.5" keyTimes="0; 0.013333; 0.133333; 0.253333; 0.373333; 0.493333; 0.613333; 0.733333; 0.853333; 0.973333; 1" keySplines="0 0 1 1; 0 0 0.36 1; 0.65 0 0.36 1; 0.65 0 1 1; 0.65 0 0.36 1; 0.65 0 1 1; 0.65 0 0.36 1; 0.65 0 1 1; 0.65 0 0.36 1; 0 0 1 1" fill="freeze" /><g transform="scale(1,1)"><animateTransform repeatCount="indefinite" type="scale" attributeName="transform" dur="5s" begin="0s" calcMode="spline" values="1 1; 1 1; 1 0.56; 1 1; 1 0.56; 1 1; 1 0.56; 1 1; 1 0.56; 1 1; 1 1" keyTimes="0; 0.013333; 0.133333; 0.253333; 0.373333; 0.493333; 0.613333; 0.733333; 0.853333; 0.973333; 1" keySplines="0 0 1 1; 0 0 0.36 1; 0.65 0 0.36 1; 0.65 0 1 1; 0.65 0 0.36 1; 0.65 0 1 1; 0.65 0 0.36 1; 0.65 0 1 1; 0.65 0 0.36 1; 0 0 1 1" fill="freeze" /><g transform="translate(-12,-40.5)"><g id="i30"><rect ry="12" rx="12" height="40" width="24" y="0" x="0" fill="#5A5A5A" /></g></g></g></g></g><g visibility="visible" id="i31"><animate repeatCount="indefinite" begin="0s" calcMode="discrete" dur="5s" values="visible" attributeName="visibility" /><g transform="translate(210,360.5)"><animateTransform repeatCount="indefinite" type="translate" attributeName="transform" dur="5s" begin="0s" calcMode="spline" values="210 360.5; 210 360.5; 210 321; 210 360.5; 210 321; 210 360.5; 210 321; 210 360.5; 210 321; 210 360.5; 210 360.5" keyTimes="0; 0.013333; 0.133333; 0.253333; 0.373333; 0.493333; 0.613333; 0.733333; 0.853333; 0.973333; 1" keySplines="0 0 1 1; 0 0 0.36 1; 0.65 0 0.36 1; 0.65 0 1 1; 0.65 0 0.36 1; 0.65 0 1 1; 0.65 0 0.36 1; 0.65 0 1 1; 0.65 0 0.36 1; 0 0 1 1" fill="freeze" /><g transform="scale(1,0.5)"><animateTransform repeatCount="indefinite" type="scale" attributeName="transform" dur="5s" begin="0s" calcMode="spline" values="1 0.5; 1 0.5; 1 1; 1 0.5; 1 1; 1 0.5; 1 1; 1 0.5; 1 1; 1 0.5; 1 0.5" keyTimes="0; 0.013333; 0.133333; 0.253333; 0.373333; 0.493333; 0.613333; 0.733333; 0.853333; 0.973333; 1" keySplines="0 0 1 1; 0 0 0.36 1; 0.65 0 0.36 1; 0.65 0 1 1; 0.65 0 0.36 1; 0.65 0 1 1; 0.65 0 0.36 1; 0.65 0 1 1; 0.65 0 0.36 1; 0 0 1 1" fill="freeze" /><g transform="translate(-12,-40.5)"><g id="i30"><rect ry="12" rx="12" height="40" width="24" y="0" x="0" fill="#5A5A5A" /></g></g></g></g></g><g transform="matrix(1,0,0,1,179.5,252.5)" visibility="visible" id="i32"><animate repeatCount="indefinite" begin="0s" calcMode="discrete" dur="5s" values="visible" attributeName="visibility" /><g id="i33"><rect ry="11.5" rx="11.5" height="23" width="255" y="108" x="0" fill="#E8E2D4" /></g><g id="i34"><rect ry="11.5" rx="11.5" height="23" width="109" y="108" x="0" fill="#FF4D00"><animate attributeName="width" from="0" to="255" dur="3s" repeatCount="indefinite" calcMode="spline" keySplines="0.25 0.1 0.25 1" /></rect></g><g id="i30"><rect ry="15" rx="15" height="108" width="159" y="0" x="96" fill="#F0EFE9" /></g></g><g transform="matrix(1,0,0,1,330.5,282.597)" visibility="visible" id="i35"><animate repeatCount="indefinite" begin="0s" calcMode="discrete" dur="5s" values="visible" attributeName="visibility" /><g id="i36"><ellipse ry="14.799" rx="18.929" cy="32.007" cx="26.5" fill="#C8FF00" /></g><g id="i33"><ellipse ry="7.571" rx="7.571" cy="13.078" cx="7.571" fill="#C8FF00" /></g><g id="i34"><ellipse ry="7.571" rx="7.571" cy="7.571" cx="26.844" fill="#C8FF00" /></g><g id="i30"><ellipse ry="7.571" rx="7.571" cy="13.078" cx="45.429" fill="#C8FF00" /></g></g></g></defs><g transform="matrix(1,0,0,1,0,12)" visibility="visible" id="i38"><animate repeatCount="indefinite" begin="0s" calcMode="discrete" dur="5s" values="visible" attributeName="visibility" /><g clip-path="url(#i0)"><g transform="matrix(1,0,0,1,140,120)" visibility="visible"><animate repeatCount="indefinite" begin="0s" calcMode="discrete" dur="5s" values="visible" attributeName="visibility" /><g clip-path="url(#i1)"><g visibility="visible"><animate repeatCount="indefinite" begin="0s" calcMode="discrete" dur="5s" values="visible" attributeName="visibility" /><g transform="translate(109.982,141) scale(2,2) translate(-54.991,-70.5)"><g transform="matrix(1,0,0,1,0,0)"><g transform="matrix(1,0,0,1,0,0)"><path fill="#000000" fill-opacity="0.102" d="M77,122C77,124.76,67.15,127,55,127C42.85,127,33,124.76,33,122C33,119.24,42.85,117,55,117C67.15,117,77,119.24,77,122C77,122,77,122,77,122Z" /></g><g transform="matrix(1,0,0,1,0,0)" opacity="0.9"><g transform="matrix(1,0,0,1,0,0)"><path fill="#e05900" d="M77,30C77,32.76,67.15,35,55,35C42.85,35,33,32.76,33,30C33,27.24,42.85,25,55,25C67.15,25,77,27.24,77,30C77,30,77,30,77,30Z" /></g></g><g transform="matrix(1,0,0,1,0,0)"><path fill="#fa7317" d="M34,30C34,19.33,41,14,55,14C69,14,76,19.33,76,30C76,30,34,30,34,30Z" /></g><g transform="matrix(1,0,0,1,0,0)" opacity="0.6"><g transform="matrix(1,0,0,1,0,0)"><path stroke-linecap="round" stroke-width="2" stroke="#e05900" d="M38,26C49.33,22,60.67,22,72,26" /></g></g><g transform="matrix(1,0,0,1,0,0)"><path fill="#fa7317" d="M22,65C19.33,51.67,23.67,42.67,35,38C41.67,34,48.33,32.33,55,33C61.67,32.33,68.33,34,75,38C86.33,42.67,90.67,51.67,88,65C90.67,78.33,88.67,89.33,82,98C74,107.33,65,112,55,112C45,112,36,107.33,28,98C21.33,89.33,19.33,78.33,22,65C22,65,22,65,22,65Z" /></g><g transform="matrix(1,0,0,1,0,0)" opacity="0.25"><g transform="matrix(1,0,0,1,0,0)"><path stroke-linecap="round" stroke-width="3" stroke="#e05900" d="M30,70C27.33,60,30,52,38,46C42.67,42,48.33,40.33,55,41" /></g></g><g transform="matrix(1,0,0,1,0,0)"><path fill="#ffffff" d="M52,62C52,67.52,47.97,72,43,72C38.03,72,34,67.52,34,62C34,56.48,38.03,52,43,52C47.97,52,52,56.48,52,62C52,62,52,62,52,62Z" /></g><g transform="matrix(1,0,0,1,0,0)"><path fill="#1c1a17" d="M49,63C49,66.04,46.76,68.5,44,68.5C41.24,68.5,39,66.04,39,63C39,59.96,41.24,57.5,44,57.5C46.76,57.5,49,59.96,49,63C49,63,49,63,49,63Z" /></g><g transform="matrix(1,0,0,1,0,0)"><path fill="#ffffff" d="M48,60C48,61.1,47.1,62,46,62C44.9,62,44,61.1,44,60C44,58.9,44.9,58,46,58C47.1,58,48,58.9,48,60C48,60,48,60,48,60Z" /></g><g transform="matrix(1,0,0,1,0,0)"><path fill="#ffffff" d="M76,62C76,67.52,71.97,72,67,72C62.03,72,58,67.52,58,62C58,56.48,62.03,52,67,52C71.97,52,76,56.48,76,62C76,62,76,62,76,62Z" /></g><g transform="matrix(1,0,0,1,0,0)"><path fill="#1c1a17" d="M73,63C73,66.04,70.76,68.5,68,68.5C65.24,68.5,63,66.04,63,63C63,59.96,65.24,57.5,68,57.5C70.76,57.5,73,59.96,73,63C73,63,73,63,73,63Z" /></g><g transform="matrix(1,0,0,1,0,0)"><path fill="#ffffff" d="M72,60C72,61.1,71.1,62,70,62C68.9,62,68,61.1,68,60C68,58.9,68.9,58,70,58C71.1,58,72,58.9,72,60C72,60,72,60,72,60Z" /></g><g transform="matrix(1,0,0,1,0,0)"><g transform="translate(34,52)"><g><animateTransform attributeName="transform" type="scale" values="1 0;1 0;1 0;1 1;1 1;1 0;1 0" keyTimes="0;0.01;0.88;0.91;0.96;0.99;1" dur="4s" repeatCount="indefinite"/><rect x="0" y="0" width="18" height="20" rx="2" fill="#fa7317"/></g></g></g><g transform="matrix(1,0,0,1,0,0)"><g transform="translate(58,52)"><g><animateTransform attributeName="transform" type="scale" values="1 0;1 0;1 0;1 1;1 1;1 0;1 0" keyTimes="0;0.01;0.88;0.91;0.96;0.99;1" dur="4s" repeatCount="indefinite"/><rect x="0" y="0" width="18" height="20" rx="2" fill="#fa7317"/></g></g></g><g transform="matrix(1,0,0,1,0,0)"><path stroke-linecap="round" stroke-width="2.5" stroke="#1c1a17" d="M46,80C52,84.67,58,84.67,64,80" /></g><g transform="matrix(1,0,0,1,0,0)" opacity="0.3"><g transform="matrix(1,0,0,1,0,0)"><path fill="#ff8c42" d="M41,75C41,77.21,38.31,79,35,79C31.69,79,29,77.21,29,75C29,72.79,31.69,71,35,71C38.31,71,41,72.79,41,75C41,75,41,75,41,75Z" /></g></g><g transform="matrix(1,0,0,1,0,0)" opacity="0.3"><g transform="matrix(1,0,0,1,0,0)"><path fill="#ff8c42" d="M81,75C81,77.21,78.31,79,75,79C71.69,79,69,77.21,69,75C69,72.79,71.69,71,75,71C78.31,71,81,72.79,81,75C81,75,81,75,81,75Z" /></g></g></g></g></g></g></g><g visibility="visible"><animate repeatCount="indefinite" begin="0s" calcMode="discrete" dur="5s" values="visible" attributeName="visibility" /><g transform="translate(250,321.5)"><animateTransform repeatCount="indefinite" type="translate" attributeName="transform" dur="5s" begin="0s" calcMode="spline" values="250 321.5; 250 321.5; 250 361; 250 321.5; 250 361; 250 321.5; 250 361; 250 321.5; 250 361; 250 321.5; 250 321.5" keyTimes="0; 0.013333; 0.133333; 0.253333; 0.373333; 0.493333; 0.613333; 0.733333; 0.853333; 0.973333; 1" keySplines="0 0 1 1; 0 0 0.36 1; 0.65 0 0.36 1; 0.65 0 1 1; 0.65 0 0.36 1; 0.65 0 1 1; 0.65 0 0.36 1; 0.65 0 1 1; 0.65 0 0.36 1; 0 0 1 1" fill="freeze" /><g transform="scale(1,1)"><animateTransform repeatCount="indefinite" type="scale" attributeName="transform" dur="5s" begin="0s" calcMode="spline" values="1 1; 1 1; 1 0.56; 1 1; 1 0.56; 1 1; 1 0.56; 1 1; 1 0.56; 1 1; 1 1" keyTimes="0; 0.013333; 0.133333; 0.253333; 0.373333; 0.493333; 0.613333; 0.733333; 0.853333; 0.973333; 1" keySplines="0 0 1 1; 0 0 0.36 1; 0.65 0 0.36 1; 0.65 0 1 1; 0.65 0 0.36 1; 0.65 0 1 1; 0.65 0 0.36 1; 0.65 0 1 1; 0.65 0 0.36 1; 0 0 1 1" fill="freeze" /><g transform="translate(-12,-40.5)"><g><rect ry="12" rx="12" height="40" width="24" y="0" x="0" fill="#5A5A5A" /></g></g></g></g></g><g visibility="visible"><animate repeatCount="indefinite" begin="0s" calcMode="discrete" dur="5s" values="visible" attributeName="visibility" /><g transform="translate(210,360.5)"><animateTransform repeatCount="indefinite" type="translate" attributeName="transform" dur="5s" begin="0s" calcMode="spline" values="210 360.5; 210 360.5; 210 321; 210 360.5; 210 321; 210 360.5; 210 321; 210 360.5; 210 321; 210 360.5; 210 360.5" keyTimes="0; 0.013333; 0.133333; 0.253333; 0.373333; 0.493333; 0.613333; 0.733333; 0.853333; 0.973333; 1" keySplines="0 0 1 1; 0 0 0.36 1; 0.65 0 0.36 1; 0.65 0 1 1; 0.65 0 0.36 1; 0.65 0 1 1; 0.65 0 0.36 1; 0.65 0 1 1; 0.65 0 0.36 1; 0 0 1 1" fill="freeze" /><g transform="scale(1,0.5)"><animateTransform repeatCount="indefinite" type="scale" attributeName="transform" dur="5s" begin="0s" calcMode="spline" values="1 0.5; 1 0.5; 1 1; 1 0.5; 1 1; 1 0.5; 1 1; 1 0.5; 1 1; 1 0.5; 1 0.5" keyTimes="0; 0.013333; 0.133333; 0.253333; 0.373333; 0.493333; 0.613333; 0.733333; 0.853333; 0.973333; 1" keySplines="0 0 1 1; 0 0 0.36 1; 0.65 0 0.36 1; 0.65 0 1 1; 0.65 0 0.36 1; 0.65 0 1 1; 0.65 0 0.36 1; 0.65 0 1 1; 0.65 0 0.36 1; 0 0 1 1" fill="freeze" /><g transform="translate(-12,-40.5)"><g><rect ry="12" rx="12" height="40" width="24" y="0" x="0" fill="#5A5A5A" /></g></g></g></g></g><g transform="matrix(1,0,0,1,179.5,252.5)" visibility="visible"><animate repeatCount="indefinite" begin="0s" calcMode="discrete" dur="5s" values="visible" attributeName="visibility" /><g><rect ry="11.5" rx="11.5" height="23" width="255" y="108" x="0" fill="#E8E2D4" /></g><g><rect ry="11.5" rx="11.5" height="23" width="109" y="108" x="0" fill="#FF4D00"><animate attributeName="width" from="0" to="255" dur="3s" repeatCount="indefinite" calcMode="spline" keySplines="0.25 0.1 0.25 1" /></rect></g><g><rect ry="15" rx="15" height="108" width="159" y="0" x="96" fill="#F0EFE9" /></g></g><g transform="matrix(1,0,0,1,330.5,282.597)" visibility="visible"><animate repeatCount="indefinite" begin="0s" calcMode="discrete" dur="5s" values="visible" attributeName="visibility" /><g><ellipse ry="14.799" rx="18.929" cy="32.007" cx="26.5" fill="#C8FF00" /></g><g><ellipse ry="7.571" rx="7.571" cy="13.078" cx="7.571" fill="#C8FF00" /></g><g><ellipse ry="7.571" rx="7.571" cy="7.571" cx="26.844" fill="#C8FF00" /></g><g><ellipse ry="7.571" rx="7.571" cy="13.078" cx="45.429" fill="#C8FF00" /></g></g></g></g></svg>