<svg viewBox="0 0 200 200" xmlns="http://www.w3.org/2000/svg">
  <rect width="200" height="200" fill="#FFFBF7"/>

  <!-- ── BACKGROUND AMBIENCE ── -->
  <circle cx="28" cy="34" r="1.2" fill="#C4B49E" opacity="0.3"/>
  <circle cx="46" cy="22" r="0.8" fill="#C4B49E" opacity="0.2"/>
  <circle cx="168" cy="48" r="1" fill="#C4B49E" opacity="0.25"/>
  <circle cx="185" cy="72" r="0.7" fill="#C4B49E" opacity="0.2"/>
  <circle cx="150" cy="26" r="0.9" fill="#C4B49E" opacity="0.3"/>
  <circle cx="22" cy="98" r="0.6" fill="#C4B49E" opacity="0.2"/>
  <circle cx="178" cy="110" r="1.1" fill="#C4B49E" opacity="0.2"/>
  <circle cx="34" cy="130" r="0.7" fill="#C4B49E" opacity="0.15"/>

  <!-- Light rays from top-left -->
  <line x1="20" y1="10" x2="60" y2="90" stroke="#C4B49E" stroke-width="0.4" opacity="0.12"/>
  <line x1="20" y1="10" x2="90" y2="70" stroke="#C4B49E" stroke-width="0.3" opacity="0.08"/>
  <line x1="20" y1="10" x2="40" y2="120" stroke="#C4B49E" stroke-width="0.4" opacity="0.1"/>

  <!-- ── SUN (top-left) ── -->
  <circle cx="30" cy="28" r="7" fill="#FF6B2B" opacity="0.12"/>
  <circle cx="30" cy="28" r="4.5" fill="#FF6B2B" opacity="0.08"/>
  <line x1="30" y1="16" x2="30" y2="12" stroke="#FF6B2B" stroke-width="0.5" opacity="0.2"/>
  <line x1="30" y1="40" x2="30" y2="44" stroke="#FF6B2B" stroke-width="0.5" opacity="0.2"/>
  <line x1="18" y1="28" x2="14" y2="28" stroke="#FF6B2B" stroke-width="0.5" opacity="0.2"/>
  <line x1="42" y1="28" x2="46" y2="28" stroke="#FF6B2B" stroke-width="0.5" opacity="0.2"/>
  <line x1="21" y1="19" x2="18" y2="16" stroke="#FF6B2B" stroke-width="0.4" opacity="0.15"/>
  <line x1="39" y1="37" x2="42" y2="40" stroke="#FF6B2B" stroke-width="0.4" opacity="0.15"/>

  <!-- ── FALLING RAINDROPS ── -->
  <ellipse cx="64" cy="118" rx="0.8" ry="1.5" fill="#93C5FD" opacity="0.5"/>
  <ellipse cx="72" cy="98" rx="0.7" ry="1.3" fill="#93C5FD" opacity="0.4"/>
  <ellipse cx="58" cy="88" rx="0.9" ry="1.6" fill="#93C5FD" opacity="0.45"/>
  <ellipse cx="48" cy="72" rx="0.6" ry="1.2" fill="#93C5FD" opacity="0.35"/>

  <!-- ── PLATFORM SHADOW ── -->
  <polygon points="58,177 100,197 142,177 100,213" fill="#E8DCCE" opacity="0.6"/>

  <!-- ── GROUND PLATFORM ── -->
  <polygon points="60,165 100,147 140,165 100,183" fill="#EDE3D5" stroke="#1A1A1A" stroke-width="1.2"/>
  <polygon points="100,183 140,165 140,177 100,195" fill="#C4B49E" stroke="#1A1A1A" stroke-width="1.2"/>
  <polygon points="60,165 100,183 100,195 60,177" fill="#D4C6B2" stroke="#1A1A1A" stroke-width="1.2"/>

  <!-- Platform texture — grid lines on top face -->
  <line x1="80" y1="156" x2="120" y2="156" stroke="#C4B49E" stroke-width="0.3" opacity="0.4"/>
  <line x1="70" y1="161" x2="130" y2="161" stroke="#C4B49E" stroke-width="0.3" opacity="0.3"/>
  <line x1="90" y1="168" x2="110" y2="168" stroke="#C4B49E" stroke-width="0.3" opacity="0.3"/>
  <line x1="80" y1="156" x2="70" y2="161" stroke="#C4B49E" stroke-width="0.3" opacity="0.35"/>
  <line x1="120" y1="156" x2="130" y2="161" stroke="#C4B49E" stroke-width="0.3" opacity="0.35"/>
  <line x1="80" y1="156" x2="90" y2="168" stroke="#C4B49E" stroke-width="0.3" opacity="0.25"/>

  <!-- ── UNDERGROUND CROSS-SECTION ── -->
  <!-- Soil cutaway layer -->
  <polygon points="60,177 100,195 140,177 140,192 100,210 60,192" fill="#5C3A1E" opacity="0.35"/>
  <polygon points="60,185 100,203 140,185 140,192 100,210 60,192" fill="#4A2E15" opacity="0.3"/>

  <!-- Soil texture in cutaway -->
  <circle cx="75" cy="184" r="0.7" fill="#3D2410" opacity="0.4"/>
  <circle cx="90" cy="190" r="0.6" fill="#3D2410" opacity="0.35"/>
  <circle cx="120" cy="186" r="0.8" fill="#3D2410" opacity="0.3"/>
  <circle cx="110" cy="192" r="0.5" fill="#3D2410" opacity="0.4"/>
  <circle cx="82" cy="194" r="0.6" fill="#3D2410" opacity="0.25"/>
  <circle cx="130" cy="182" r="0.7" fill="#3D2410" opacity="0.3"/>

  <!-- Seed underground -->
  <ellipse cx="105" cy="170" rx="3.5" ry="2.5" fill="#8B5E3C" stroke="#6B3F1E" stroke-width="0.4"/>
  <ellipse cx="105" cy="169.5" rx="1.5" ry="0.8" fill="#A0724E" opacity="0.5"/>

  <!-- Root tip emerging from seed -->
  <path d="M105,172.5 Q104,176 102,178" fill="none" stroke="#D4C6B2" stroke-width="0.8" stroke-linecap="round" opacity="0.8"/>
  <path d="M102,178 Q101,179 100.5,179.5" fill="none" stroke="#D4C6B2" stroke-width="0.5" stroke-linecap="round" opacity="0.6"/>

  <!-- Tiny root hairs -->
  <path d="M103.2,175 Q102,174.5 101.5,175" fill="none" stroke="#D4C6B2" stroke-width="0.3" opacity="0.4"/>
  <path d="M104,177 Q105,176.5 105.5,177" fill="none" stroke="#D4C6B2" stroke-width="0.3" opacity="0.4"/>

  <!-- Earthworm in soil -->
  <path d="M78,192 Q76,190 74,192 Q72,194 70,192" fill="none" stroke="#C4B49E" stroke-width="0.8" stroke-linecap="round" opacity="0.35"/>
  <path d="M81,196 Q79,194 77,196 Q75,198 73,196" fill="none" stroke="#C4B49E" stroke-width="0.6" stroke-linecap="round" opacity="0.25"/>

  <!-- ── SOIL MOUND (above ground) ── -->
  <!-- Base soil -->
  <ellipse cx="105" cy="160" rx="14" ry="5.5" fill="#8B5E3C" opacity="0.35"/>
  <ellipse cx="105" cy="159" rx="10" ry="4" fill="#8B5E3C" opacity="0.5"/>
  <ellipse cx="105" cy="158" rx="7" ry="2.5" fill="#7A4E2D" opacity="0.4"/>

  <!-- Soil texture dots -->
  <circle cx="99" cy="158" r="0.8" fill="#6B3F1E" opacity="0.5"/>
  <circle cx="108" cy="160" r="0.6" fill="#6B3F1E" opacity="0.4"/>
  <circle cx="102" cy="161" r="0.7" fill="#6B3F1E" opacity="0.3"/>
  <circle cx="111" cy="158" r="0.5" fill="#6B3F1E" opacity="0.5"/>
  <circle cx="96" cy="159" r="0.6" fill="#6B3F1E" opacity="0.35"/>
  <circle cx="113" cy="160" r="0.5" fill="#6B3F1E" opacity="0.3"/>

  <!-- ── PEBBLES ── -->
  <ellipse cx="88" cy="167" rx="2.5" ry="1.5" fill="#B8B0A8" stroke="#A8A29E" stroke-width="0.3"/>
  <ellipse cx="118" cy="169" rx="2" ry="1.2" fill="#B8B0A8" stroke="#A8A29E" stroke-width="0.3"/>
  <ellipse cx="84" cy="170" rx="1.5" ry="1" fill="#C4B49E" opacity="0.6"/>
  <ellipse cx="68" cy="169" rx="1.8" ry="1.2" fill="#B8B0A8" stroke="#A8A29E" stroke-width="0.3"/>
  <ellipse cx="126" cy="167" rx="1.3" ry="0.8" fill="#C4B49E" opacity="0.5"/>

  <!-- ── GRASS BLADES ── -->
  <path d="M93,157 Q91,152 92,148" fill="none" stroke="#16A34A" stroke-width="0.8" stroke-linecap="round" opacity="0.7"/>
  <path d="M112,159 Q114,154 113,150" fill="none" stroke="#16A34A" stroke-width="0.7" stroke-linecap="round" opacity="0.6"/>
  <path d="M95,158 Q93,155 94,152" fill="none" stroke="#16A34A" stroke-width="0.6" stroke-linecap="round" opacity="0.5"/>
  <path d="M115,160 Q117,156 116,153" fill="none" stroke="#16A34A" stroke-width="0.6" stroke-linecap="round" opacity="0.5"/>
  <path d="M79,158 Q77,154 78,150" fill="none" stroke="#16A34A" stroke-width="0.7" stroke-linecap="round" opacity="0.6"/>
  <path d="M121,158 Q123,154 122,151" fill="none" stroke="#16A34A" stroke-width="0.6" stroke-linecap="round" opacity="0.5"/>

  <!-- ── MAIN SPROUT ── -->
  <!-- Stem (gentle S-curve, slightly thicker) -->
  <path d="M105,158 Q102,148 105,138" fill="none" stroke="#16A34A" stroke-width="2" stroke-linecap="round"/>

  <!-- Bottom left leaf -->
  <path d="M104,147 Q94,140 97,134 Q101,138 104,147" fill="#16A34A" stroke="#15803D" stroke-width="0.4"/>
  <path d="M104,147 Q100,142 98,136" fill="none" stroke="#15803D" stroke-width="0.3" opacity="0.6"/>

  <!-- Bottom right leaf -->
  <path d="M105.5,144 Q116,137 112,131 Q108,135 105.5,144" fill="#16A34A" stroke="#15803D" stroke-width="0.4"/>
  <path d="M106,144 Q110,139 112,133" fill="none" stroke="#15803D" stroke-width="0.3" opacity="0.6"/>

  <!-- Top left leaf (third leaf) -->
  <path d="M104.5,141 Q96,134 98.5,128 Q102,132 104.5,141" fill="#16A34A" stroke="#15803D" stroke-width="0.35"/>
  <path d="M104.5,141 Q101,136 99,130" fill="none" stroke="#15803D" stroke-width="0.25" opacity="0.5"/>

  <!-- Water droplet on top leaf -->
  <ellipse cx="99.5" cy="127.5" rx="1" ry="1.3" fill="#D4F4FF" stroke="#93C5FD" stroke-width="0.3" opacity="0.8"/>
  <ellipse cx="99.3" cy="127.2" rx="0.35" ry="0.45" fill="#fff" opacity="0.7"/>

  <!-- ── TINY SECOND SPROUT (just emerging) ── -->
  <path d="M99,158 Q98,155 98.5,153" fill="none" stroke="#16A34A" stroke-width="1" stroke-linecap="round" opacity="0.7"/>
  <path d="M98.5,154 Q96,152.5 97,151 Q98.5,152.5 98.5,154" fill="#16A34A" opacity="0.7"/>

  <!-- ── WATERING CAN (replaces mascot position) ── -->
  <g transform="translate(64, 162)">
    <!-- Watering can body -->
    <path d="M0,8 L0,2 Q0,0 2,0 L10,0 Q12,0 12,2 L12,8 Z" fill="#FFF0E5" stroke="#1A1A1A" stroke-width="0.7"/>
    <!-- Spout -->
    <path d="M12,4 L18,1 L18,2.5 L12,6 Z" fill="#FFF0E5" stroke="#1A1A1A" stroke-width="0.5"/>
    <!-- Handle -->
    <path d="M2,0 Q-2,-3 2,-5 Q6,-3 6,0" fill="none" stroke="#1A1A1A" stroke-width="0.6"/>
    <!-- Water drop from spout -->
    <ellipse cx="19" cy="4" rx="0.6" ry="1" fill="#93C5FD" opacity="0.6"/>
  </g>

  <!-- ── MEASURING STICK (left side) ── -->
  <g transform="translate(54, 148)">
    <line x1="0" y1="0" x2="0" y2="22" stroke="#C4B49E" stroke-width="1.2"/>
    <line x1="0" y1="0" x2="3" y2="0" stroke="#C4B49E" stroke-width="0.5"/>
    <line x1="0" y1="5" x2="2" y2="5" stroke="#C4B49E" stroke-width="0.4"/>
    <line x1="0" y1="10" x2="3" y2="10" stroke="#C4B49E" stroke-width="0.5"/>
    <line x1="0" y1="15" x2="2" y2="15" stroke="#C4B49E" stroke-width="0.4"/>
    <line x1="0" y1="20" x2="3" y2="20" stroke="#C4B49E" stroke-width="0.5"/>
    <text x="4" y="1.5" fill="#C4B49E" font-family="'DM Sans', sans-serif" font-size="3" opacity="0.6">0</text>
    <text x="4" y="11.5" fill="#C4B49E" font-family="'DM Sans', sans-serif" font-size="3" opacity="0.6">1</text>
    <text x="4" y="21.5" fill="#C4B49E" font-family="'DM Sans', sans-serif" font-size="3" opacity="0.6">2</text>
  </g>

  <!-- ── FALLEN LEAF ON PLATFORM ── -->
  <ellipse cx="122" cy="172" rx="3" ry="1.5" fill="#D4C6B2" opacity="0.5" transform="rotate(-20,122,172)"/>
  <path d="M120,172 Q122,170 124,172" fill="none" stroke="#C4B49E" stroke-width="0.3" opacity="0.4"/>

  <!-- ── SEED PACKET (beside platform) ── -->
  <g transform="translate(130, 172)">
    <rect x="0" y="0" width="12" height="16" rx="1.5" fill="#FFF0E5" stroke="#1A1A1A" stroke-width="0.6"/>
    <rect x="2" y="2" width="8" height="5" rx="1" fill="#FDBA74" opacity="0.5"/>
    <ellipse cx="6" cy="4.5" rx="1.5" ry="1" fill="#8B5E3C" opacity="0.6"/>
    <line x1="0" y1="12" x2="12" y2="12" stroke="#1A1A1A" stroke-width="0.3" opacity="0.3"/>
  </g>

  <!-- ── BLUEPRINT CORNERS ── -->
  <path d="M16,16 L16,24 L24,24" fill="none" stroke="#C4B49E" stroke-width="0.8"/>
  <path d="M184,184 L184,176 L176,176" fill="none" stroke="#C4B49E" stroke-width="0.8"/>

  <!-- ── LABEL ── -->
  <text x="16" y="188" fill="#C4B49E" font-family="'DM Sans', sans-serif" font-size="7">● 01 — Seed</text>
</svg>
