<svg viewBox="0 0 200 200" xmlns="http://www.w3.org/2000/svg">
  <rect width="200" height="200" fill="#FFFBF7"/>

  <!-- Ground platform (full width) -->
  <polygon points="30,170 100,146 170,170 100,194" fill="#EDE3D5" stroke="#1A1A1A" stroke-width="1.2"/>
  <polygon points="100,194 170,170 170,182 100,206" fill="#C4B49E" stroke="#1A1A1A" stroke-width="1.2"/>
  <polygon points="30,170 100,194 100,206 30,182" fill="#D4C6B2" stroke="#1A1A1A" stroke-width="1.2"/>

  <!-- Roots -->
  <path d="M94,166 Q78,176 70,182" fill="none" stroke="#1A1A1A" stroke-width="1.5" stroke-linecap="round"/>
  <path d="M106,166 Q122,176 130,182" fill="none" stroke="#1A1A1A" stroke-width="1.5" stroke-linecap="round"/>
  <path d="M100,168 Q100,184 94,190" fill="none" stroke="#1A1A1A" stroke-width="1" stroke-linecap="round"/>
  <path d="M96,166 Q80,180 72,186" fill="none" stroke="#1A1A1A" stroke-width="0.8" stroke-linecap="round" opacity="0.4"/>
  <path d="M104,166 Q120,180 128,186" fill="none" stroke="#1A1A1A" stroke-width="0.8" stroke-linecap="round" opacity="0.4"/>

  <!-- Trunk (thicker) -->
  <polygon points="92,74 100,68 108,74 100,80" fill="#EDE3D5" stroke="#1A1A1A" stroke-width="0.8"/>
  <polygon points="100,80 108,74 108,168 100,174" fill="#1A1A1A" stroke="#1A1A1A" stroke-width="0.8"/>
  <polygon points="92,74 100,80 100,174 92,168" fill="#2A2A2A" stroke="#1A1A1A" stroke-width="0.8"/>

  <!-- Trunk texture -->
  <line x1="96" y1="100" x2="104" y2="100" stroke="#EDE3D5" stroke-width="0.5" opacity="0.15"/>
  <line x1="96" y1="120" x2="104" y2="120" stroke="#EDE3D5" stroke-width="0.5" opacity="0.15"/>
  <line x1="96" y1="140" x2="104" y2="140" stroke="#EDE3D5" stroke-width="0.5" opacity="0.15"/>
  <line x1="96" y1="155" x2="104" y2="155" stroke="#EDE3D5" stroke-width="0.5" opacity="0.15"/>

  <!-- Branches -->
  <path d="M94,110 Q74,100 60,86" fill="none" stroke="#1A1A1A" stroke-width="2.5" stroke-linecap="round"/>
  <path d="M106,105 Q126,95 140,81" fill="none" stroke="#1A1A1A" stroke-width="2.5" stroke-linecap="round"/>
  <path d="M96,88 Q80,78 66,66" fill="none" stroke="#1A1A1A" stroke-width="2" stroke-linecap="round"/>
  <path d="M104,83 Q120,73 134,61" fill="none" stroke="#1A1A1A" stroke-width="2" stroke-linecap="round"/>
  <path d="M98,75 Q90,66 82,56" fill="none" stroke="#1A1A1A" stroke-width="1.5" stroke-linecap="round"/>
  <path d="M102,72 Q110,63 118,53" fill="none" stroke="#1A1A1A" stroke-width="1.5" stroke-linecap="round"/>

  <!-- Large leaf clusters -->
  <!-- Lower left -->
  <circle cx="52" cy="82" r="12" fill="#FF6B2B" opacity="0.12"/>
  <circle cx="48" cy="78" r="8" fill="#FF6B2B" opacity="0.4"/>
  <circle cx="55" cy="80" r="6" fill="#FF6B2B" opacity="0.7"/>
  <circle cx="46" cy="84" r="5" fill="#FF6B2B"/>
  <circle cx="56" cy="76" r="3" fill="#FF6B2B" opacity="0.9"/>

  <!-- Lower right -->
  <circle cx="148" cy="76" r="12" fill="#FF6B2B" opacity="0.12"/>
  <circle cx="150" cy="72" r="8" fill="#FF6B2B" opacity="0.4"/>
  <circle cx="146" cy="74" r="6" fill="#FF6B2B" opacity="0.7"/>
  <circle cx="152" cy="78" r="5" fill="#FF6B2B"/>
  <circle cx="144" cy="70" r="3" fill="#FF6B2B" opacity="0.9"/>

  <!-- Upper left -->
  <circle cx="58" cy="62" r="11" fill="#FF6B2B" opacity="0.12"/>
  <circle cx="56" cy="58" r="7" fill="#FF6B2B" opacity="0.4"/>
  <circle cx="60" cy="60" r="5" fill="#FF6B2B" opacity="0.7"/>
  <circle cx="54" cy="64" r="4" fill="#FF6B2B"/>
  <circle cx="62" cy="56" r="3" fill="#FF6B2B" opacity="0.9"/>

  <!-- Upper right -->
  <circle cx="142" cy="56" r="11" fill="#FF6B2B" opacity="0.12"/>
  <circle cx="144" cy="52" r="7" fill="#FF6B2B" opacity="0.4"/>
  <circle cx="140" cy="54" r="5" fill="#FF6B2B" opacity="0.7"/>
  <circle cx="146" cy="58" r="4" fill="#FF6B2B"/>

  <!-- Top left -->
  <circle cx="76" cy="48" r="9" fill="#FF6B2B" opacity="0.12"/>
  <circle cx="74" cy="45" r="6" fill="#FF6B2B" opacity="0.4"/>
  <circle cx="78" cy="47" r="4" fill="#FF6B2B" opacity="0.7"/>
  <circle cx="72" cy="50" r="3" fill="#FF6B2B"/>

  <!-- Top right -->
  <circle cx="124" cy="44" r="9" fill="#FF6B2B" opacity="0.12"/>
  <circle cx="126" cy="41" r="6" fill="#FF6B2B" opacity="0.4"/>
  <circle cx="122" cy="43" r="4" fill="#FF6B2B" opacity="0.7"/>
  <circle cx="128" cy="46" r="3" fill="#FF6B2B"/>

  <!-- Top canopy crown -->
  <circle cx="100" cy="62" r="14" fill="#FF6B2B" opacity="0.1"/>
  <circle cx="94" cy="56" r="9" fill="#FF6B2B" opacity="0.35"/>
  <circle cx="106" cy="56" r="9" fill="#FF6B2B" opacity="0.35"/>
  <circle cx="100" cy="52" r="7" fill="#FF6B2B" opacity="0.55"/>
  <circle cx="96" cy="60" r="6" fill="#FF6B2B" opacity="0.75"/>
  <circle cx="104" cy="60" r="6" fill="#FF6B2B" opacity="0.75"/>
  <circle cx="100" cy="56" r="4" fill="#FF6B2B"/>

  <!-- Flowers / fruit -->
  <circle cx="44" cy="80" r="2.5" fill="#FF6B2B"/>
  <circle cx="58" cy="60" r="2.5" fill="#FF6B2B"/>
  <circle cx="150" cy="74" r="2.5" fill="#FF6B2B"/>
  <circle cx="142" cy="54" r="2.5" fill="#FF6B2B"/>
  <circle cx="70" cy="48" r="2" fill="#FF6B2B"/>
  <circle cx="130" cy="44" r="2" fill="#FF6B2B"/>

  <!-- Butterfly -->
  <path d="M36,56 Q32,52 34,48 Q36,52 40,48 Q38,52 36,56" fill="#EDE3D5" stroke="#1A1A1A" stroke-width="0.6"/>
  <path d="M36,56 Q32,60 34,64 Q36,60 40,64 Q38,60 36,56" fill="#EDE3D5" stroke="#1A1A1A" stroke-width="0.6"/>
  <line x1="36" y1="56" x2="36" y2="52" stroke="#1A1A1A" stroke-width="0.5"/>

  <!-- Connection network between branches -->
  <line x1="56" y1="82" x2="148" y2="76" stroke="#FF6B2B" stroke-width="0.6" stroke-dasharray="2 3" opacity="0.4"/>
  <line x1="60" y1="62" x2="142" y2="56" stroke="#FF6B2B" stroke-width="0.6" stroke-dasharray="2 3" opacity="0.4"/>
  <line x1="56" y1="82" x2="60" y2="62" stroke="#FF6B2B" stroke-width="0.6" stroke-dasharray="2 3" opacity="0.3"/>

  <!-- Sparkles -->
  <text x="155" y="50" fill="#FF6B2B" font-size="6" opacity="0.7">✦</text>
  <text x="38" y="42" fill="#FF6B2B" font-size="5" opacity="0.5">✦</text>

  <!-- Mascot celebrating (right side) -->
  <ellipse cx="158" cy="156" rx="9" ry="11" fill="#FF6B2B" stroke="#1A1A1A" stroke-width="1"/>
  <!-- Eyes (happy, closed) -->
  <path d="M154,151 Q156,149 158,151" fill="none" stroke="#1A1A1A" stroke-width="1" stroke-linecap="round"/>
  <path d="M160,151 Q162,149 164,151" fill="none" stroke="#1A1A1A" stroke-width="1" stroke-linecap="round"/>
  <!-- Big smile -->
  <path d="M155,157 Q159,162 163,157" fill="none" stroke="#1A1A1A" stroke-width="0.8" stroke-linecap="round"/>
  <!-- Arms raised -->
  <path d="M153,146 Q148,138 146,130" fill="none" stroke="#FF6B2B" stroke-width="2.5" stroke-linecap="round"/>
  <path d="M153,146 Q148,138 146,130" fill="none" stroke="#1A1A1A" stroke-width="0.7" stroke-linecap="round"/>
  <path d="M163,146 Q168,138 170,130" fill="none" stroke="#FF6B2B" stroke-width="2.5" stroke-linecap="round"/>
  <path d="M163,146 Q168,138 170,130" fill="none" stroke="#1A1A1A" stroke-width="0.7" stroke-linecap="round"/>

  <!-- Mini XP stars near mascot -->
  <text x="145" y="128" fill="#FF6B2B" font-size="7" opacity="0.8">✦</text>
  <text x="168" y="126" fill="#FF6B2B" font-size="5" opacity="0.6">✦</text>

  <!-- Blueprint corner -->
  <path d="M16,16 L16,24 L24,24" fill="none" stroke="#C4B49E" stroke-width="0.8"/>

  <!-- Label -->
  <text x="16" y="188" fill="#C4B49E" font-family="'DM Sans', sans-serif" font-size="7">● 04 — Bloom</text>
</svg>
